<svg xmlns="http://www.w3.org/2000/svg" viewBox="0 0 3012 766" width="983" height="250">
	<defs>
		<clipPath clipPathUnits="userSpaceOnUse" id="cp1">
			<path d="M1014 0L1998 0L1998 766L1014 766Z" />
		</clipPath>
	</defs>
	<style>
		tspan { white-space:pre }
		.shp0 { fill: #ffffff } 
		.shp1 { fill: #2c2e35 } 
	</style>
	<g id="Page 2" clip-path="url(#cp1)">
		<path id="Path 6" fill-rule="evenodd" class="shp0" d="M1242.87 492.37C1243.55 479.84 1244.19 467.89 1244.87 455.32C1237.17 461.32 1242.27 457.33 1233.98 463.45C1233 464.18 1228.06 467.62 1225.47 467.62C1224.07 467.62 1223.37 467.47 1223.03 467.16L1223.03 425.33L1222.84 425.51C1222.85 425.45 1222.85 425.39 1222.85 425.33C1214.95 431.42 1207.29 435.91 1200.9 442.54C1182.96 461.14 1176.76 470 1159.38 489.14C1156.96 491.81 1154.55 492.78 1151.11 492.18C1139.97 490.25 1128.8 488.48 1117.67 486.47C1111.06 485.28 1114.09 479.88 1115.18 478.66C1121.31 471.75 1129.56 461.38 1130.88 459.94C1117.9 466.79 1105.94 475.09 1092.77 481.17L1091.98 480.01C1098.74 474.82 1105.51 469.63 1112.86 463.99C1110.61 464.68 1109 465.87 1107.58 465.49C1099.78 463.42 1101.54 459.54 1103.8 457.96C1104.37 457.56 1141.14 431.72 1158.76 419.2C1161.14 417.51 1163.62 415.97 1165.99 414.26C1166.5 409.52 1169.44 391.87 1185.44 376.71C1187.88 378.35 1191.69 379.79 1197.32 379.48C1188.81 390.64 1185.31 400.19 1183.89 406.45C1170.82 413.6 1165.88 415.49 1165.88 415.49L1162.89 422.67C1167.27 422.11 1175.69 419.62 1183.07 415.49L1183.2 417.51L1185.04 417.74C1180.99 425.62 1179.35 433.38 1178.72 438.11C1164.12 446.4 1152.84 446.81 1152.84 446.81C1140.42 460.48 1125.89 478.6 1125.02 479.7C1134.35 481.31 1143.04 482.91 1151.77 484.22C1152.74 484.36 1154.14 483.04 1155.01 482.1C1167.33 468.8 1169.13 466.34 1180.66 452.39C1188.49 442.93 1197.39 434.91 1206.89 427.65C1196.36 433.86 1188.17 435.73 1188.17 435.73C1188.17 435.73 1186.22 431.01 1193.27 417.3C1198.96 416.15 1207.81 413.06 1218.6 405.14C1217.7 410.93 1218.54 415.86 1219.67 418.5C1219.67 418.5 1219.67 418.5 1219.67 418.51C1223.12 416.18 1226.62 413.9 1230.15 411.66C1228.21 408.69 1225.19 400.22 1236.01 383.24C1238.9 378.84 1241.96 375.13 1244.99 371.99C1248.69 371.63 1253.12 370.87 1257.97 369.42C1258.94 376.3 1263.74 383.17 1265.97 386.43L1273.03 381.24C1270.73 378.27 1267.33 369.42 1267.41 358.42C1253.06 364.7 1240.41 362.58 1240.41 362.58C1240.41 362.58 1240.82 348.88 1249.76 335.15C1235.61 331.67 1229.66 320.53 1229.66 320.53C1229.66 320.53 1238.77 307.6 1258.35 299.4C1258.66 299.23 1258.97 299.06 1259.29 298.91C1261.6 297.79 1262.46 296.35 1262.97 293.99C1265.91 280.19 1273.66 270.92 1287.96 267.97C1292.52 267.03 1297.07 266.61 1301.63 266.61C1333.1 266.61 1337.78 281.57 1337.78 288.65C1335.88 286.5 1331.7 285.7 1329.88 285.7C1320.08 285.7 1319.47 298.19 1320.71 303.98C1323.94 319.07 1322.13 332.97 1315.4 345.97C1313.77 348.92 1311.79 351.72 1309.59 354.37L1309.62 354.35C1307.35 357.46 1304.82 361.75 1303.86 365.89C1301.29 377 1297.61 387.85 1294.85 398.92C1291.2 413.52 1287.95 428.25 1288.31 443.43C1288.39 446.91 1287.97 449.47 1283.97 450.23C1287.65 462.49 1291.36 474.5 1294.81 486.59C1295.64 489.48 1296.85 490.53 1299.89 490.05C1302.28 489.67 1304.79 489.92 1307.24 489.98C1311.56 490.08 1315.95 490.82 1320.17 490.26C1326.59 489.41 1332.25 490.88 1337.5 494.23C1339.33 495.41 1341.08 496.92 1341.42 499.15L1206.93 499.15C1212.25 494.16 1217.91 491.08 1225.11 491.47C1230.9 491.78 1236.69 492.06 1242.87 492.37ZM1313.67 327.49C1314.61 319.76 1314.47 312.8 1313.21 305.79C1312.86 303.81 1310.89 293.46 1314.8 286.68C1316.04 284.52 1317.77 283.07 1319.69 282.13C1318.96 282.05 1318.25 281.9 1317.57 281.68C1315.72 281.07 1314.05 281.47 1312.44 282.54C1311.74 283 1311.07 283.49 1310.34 283.91C1309.43 284.44 1308.12 284.61 1307.27 284.35C1308.77 284.04 1309.81 283.27 1310.45 282.1C1311.06 280.96 1310.47 279.64 1308.85 279.86C1308.92 280.78 1308.56 281.56 1307.5 282.02C1306.72 282.35 1305.89 282.15 1305.4 281.59C1304.85 280.96 1304.81 279.91 1305.48 279.29C1305.94 278.86 1305.92 278.58 1305.62 278.21C1305.49 278.05 1305.38 277.87 1305.27 277.71C1303.76 277.97 1303.69 277.96 1303.39 279.22C1303.18 280.09 1303.2 280.98 1303.12 281.76C1302.47 280.79 1302.4 279.59 1302.86 278.22C1298.13 279.98 1295.45 278.9 1294.17 277.6C1294.56 277.73 1294.91 277.86 1295.27 277.96C1296.63 278.35 1298.04 278.33 1299.42 277.8C1300.52 277.38 1301.58 276.87 1302.63 276.35C1305.13 275.11 1307.57 274.87 1309.88 276.14C1310.98 276.74 1312.04 277.4 1313.09 278.06C1314.3 278.81 1315.44 279.64 1316.67 280.36C1317.83 281.04 1319.07 281.54 1320.43 281.8C1322.36 281 1324.43 280.67 1326.4 280.69C1323.18 277.46 1316.47 273.21 1306.32 273.21C1289.37 273.21 1286.19 273.74 1282.18 278.36C1281.47 279.18 1280.56 281 1280.84 282.09C1281.97 286.51 1284.69 289.77 1289.17 291.24C1291.48 292 1293.8 292.7 1296.13 293.4C1296.95 293.64 1296.9 294.83 1296.05 295.01C1286.79 296.95 1280.66 296.75 1272.68 289.25C1272.03 291.64 1271.47 293.93 1270.84 296.17C1292.51 294.15 1307.68 312.08 1313.67 327.49ZM1292.57 376.67C1292.21 376.53 1291.86 376.4 1291.5 376.26C1290.88 377.82 1290.08 379.32 1289.66 380.93C1286.44 393.32 1283.45 405.83 1276.97 417.03C1271.43 426.62 1265.43 435.94 1259.64 445.38C1258.98 446.45 1258.36 447.55 1257.71 448.65C1260.21 450.64 1262.48 452.46 1264.86 454.36C1267.47 452.03 1269.76 448.81 1272.87 447.47C1279.37 444.66 1280.5 440.2 1280.89 433.54C1281.85 416.66 1286.18 400.27 1290.63 383.98C1291.29 381.55 1291.92 379.11 1292.57 376.67ZM1274.63 455.49C1272.59 458.11 1270.98 460.07 1269.47 462.11C1267.18 465.19 1265.08 465.53 1262.18 462.99C1260.01 461.1 1258 459.05 1255.25 456.43C1254.54 468.86 1253.9 480.26 1253.24 491.79C1255.59 491.79 1257.78 491.64 1259.95 491.83C1262.82 492.08 1265.67 492.59 1268.52 493.01C1269.18 493.11 1269.86 493.51 1270.48 493.43C1275.28 492.76 1280.06 492 1285.35 491.19C1281.94 479.83 1278.4 468.03 1274.63 455.49ZM1256.47 435.33C1263.87 423.03 1266.18 419.7 1273.02 407.09C1276.19 401.25 1277.71 394.51 1280.31 387.26C1269.61 394.72 1259.89 401.56 1250.08 408.28C1245.08 411.71 1240.02 415.09 1234.78 418.14C1232.48 419.48 1231.96 421 1231.95 423.46C1231.87 433.62 1231.56 443.78 1231.33 454.21C1236.84 450.18 1256.06 436.01 1256.47 435.33ZM1230.6 367.73L1230.54 371.4L1233.91 371.94C1234.2 371.96 1234.97 372.05 1236.03 372.14C1233.35 375.25 1230.75 378.66 1228.2 382.57C1225.37 386.99 1223.3 390.96 1221.77 394.59C1204.55 409.2 1192.72 407.7 1192.72 407.7C1192.72 407.7 1192.21 394.62 1207.66 377.35C1211.26 376.2 1215.26 374.52 1219.79 372.13C1223.79 370.05 1227.43 367.77 1230.75 365.48C1230.65 366.6 1230.63 367.42 1230.6 367.73ZM1191.13 369.42C1191.13 369.42 1194.33 345.97 1220.64 327.97C1223.34 331.15 1230.74 340.01 1237.29 342.65C1234.98 347.52 1233.44 352.1 1232.43 355.98C1228.94 358.63 1224.94 361.25 1220.32 363.6C1197.6 375.68 1191.13 369.42 1191.13 369.42ZM1749.16 492.94L1753.19 499.15L1745.68 499.15L1742.45 494.18C1738.97 488.78 1737.42 487.85 1732.95 487.72L1726.12 487.72L1726.12 499.15L1719.41 499.15L1719.41 455.68L1733.82 455.68C1745.43 455.68 1752.57 462.26 1752.57 471.7C1752.57 478.59 1748.6 483.38 1742.33 485.55C1744.5 486.61 1746.49 488.78 1749.16 492.94ZM1746.24 471.7C1746.24 465.12 1740.9 462.02 1734.38 462.02L1726.12 462.02L1726.12 481.45L1734.38 481.45C1740.9 481.45 1746.24 478.53 1746.24 471.7ZM1694.59 455.68L1712.34 499.15L1704.96 499.15L1701.04 489.4L1684.09 489.4L1680.12 499.15L1672.73 499.15L1690.67 455.68L1694.59 455.68ZM1698.75 483.06L1692.6 467.91L1686.45 483.06L1698.75 483.06ZM1827 499.15L1818.85 499.15L1814.54 488.4L1795.85 488.4L1791.47 499.15L1783.33 499.15L1803.11 451.23L1807.42 451.23L1827 499.15ZM1812.01 481.42L1805.23 464.72L1798.45 481.42L1812.01 481.42ZM1760.26 455.68L1777.28 455.68L1777.28 462.02L1772.12 462.02L1772.12 492.81L1777.28 492.81L1777.28 499.15L1760.26 499.15L1760.26 492.81L1765.42 492.81L1765.42 462.02L1760.26 462.02L1760.26 455.68ZM1648.46 455.68L1669.01 455.68L1669.01 483.81C1669.01 494.49 1662.61 499.58 1654.23 499.58C1645.79 499.58 1639.45 494.49 1639.45 483.81L1639.45 481.7L1646.16 481.7L1646.16 484.68C1646.16 490.02 1649.39 493.25 1654.23 493.25C1659.07 493.25 1662.3 490.02 1662.3 484.68L1662.3 462.02L1648.46 462.02L1648.46 455.68ZM1487.23 455.68L1515.48 455.68L1515.48 462.02L1493.94 462.02L1493.94 474.06L1513.99 474.06L1513.99 480.4L1493.94 480.4L1493.94 492.81L1515.48 492.81L1515.48 499.15L1487.23 499.15L1487.23 455.68ZM1444.38 475.19C1444.38 485.39 1451.84 492.64 1461.36 492.64C1466.56 492.64 1471.22 490.73 1474.64 487.24L1479.43 491.69C1474.91 496.55 1468.48 499.63 1461.36 499.63C1447.88 499.63 1436.99 488.67 1436.99 475.19C1436.99 461.71 1447.88 450.75 1461.36 450.75C1468.48 450.75 1474.91 453.83 1479.43 458.69L1474.64 463.14C1471.22 459.72 1466.56 457.74 1461.36 457.74C1451.84 457.74 1444.38 465.06 1444.38 475.19ZM1605.19 455.68L1633.44 455.68L1633.44 462.02L1611.89 462.02L1611.89 474.06L1631.95 474.06L1631.95 480.4L1611.89 480.4L1611.89 492.81L1633.44 492.81L1633.44 499.15L1605.19 499.15L1605.19 455.68ZM1552.86 492.94L1556.89 499.15L1549.38 499.15L1546.15 494.18C1542.67 488.78 1541.12 487.85 1536.65 487.72L1529.82 487.72L1529.82 499.15L1523.11 499.15L1523.11 455.68L1537.52 455.68C1549.13 455.68 1556.27 462.26 1556.27 471.7C1556.27 478.59 1552.3 483.38 1546.03 485.55C1548.2 486.61 1550.19 488.78 1552.86 492.94ZM1549.94 471.7C1549.94 465.12 1544.6 462.02 1538.08 462.02L1529.82 462.02L1529.82 481.45L1538.08 481.45C1544.6 481.45 1549.94 478.53 1549.94 471.7ZM1590.66 455.68L1598.11 455.68L1580.17 499.15L1576.26 499.15L1558.19 455.68L1565.58 455.68L1578.18 486.79L1590.66 455.68Z" />
		<path id="Path 7" fill-rule="evenodd" class="shp1" d="M1574.95 341.22C1581.54 377.46 1564.35 392.08 1541.02 395.07C1500.18 395.94 1491.31 367.92 1491.28 358.5C1491.2 334.79 1505.08 311.71 1533.7 313.71C1550.99 314.92 1571.19 325.11 1574.95 341.22ZM1563.58 358.37C1563.61 331.32 1537.55 325.57 1526.22 327.05C1512.52 328.84 1504.92 351.89 1508.62 366.48C1509.45 369.75 1521.97 391.24 1547.62 383.08C1557.4 378.64 1563.56 370.83 1563.58 358.37ZM1685.77 398.25C1688.14 402.73 1693.46 421.42 1668.09 418.27C1642.16 415.05 1626.48 382.44 1625.25 369.99C1624.71 364.58 1627.51 365.24 1644.16 367.89C1654.35 369.51 1654.62 355.58 1654.51 348.04C1654.25 330.95 1636.27 329.21 1618.55 329.23C1617.44 329.23 1617.3 333.39 1617.3 333.39C1617.3 333.39 1616.22 401.41 1616.14 404.27C1616.02 408.26 1615.98 411.14 1623.78 411.09C1627.24 411.07 1625.78 416.73 1624.35 416.73C1624.11 416.73 1591.98 416.59 1591.66 416.57C1588.22 416.42 1587.71 411.4 1591.09 410.76C1591.12 410.75 1591.15 410.75 1591.18 410.74C1594.24 410.19 1595.99 409.07 1596.4 407.4C1596.82 405.03 1597.49 333.72 1595.49 326.12C1595.26 325.24 1588.88 323.44 1587.96 323.36C1586.31 323.23 1585 321.89 1584.94 320.23C1584.9 318.94 1585.4 317.64 1587.41 317.31C1590.01 317.05 1643.65 317.18 1646.98 317.32C1667.21 318.17 1678.71 335.38 1677.08 348.88C1675.45 362.31 1664.47 370.82 1658.48 373.33C1655.48 374.47 1652.67 375.27 1650.04 375.74C1647.77 376.16 1647.31 378.47 1648.25 380.58C1658.71 404.29 1665.41 410.84 1674.98 410.27C1679.13 410.02 1678.05 400.04 1680.8 397.69C1682.31 396.4 1684.84 396.49 1685.77 398.25ZM1478.99 346.46C1483.34 350.46 1479.57 356.62 1477.9 356.62C1475.11 356.62 1460.15 352.6 1457.86 352.26C1456.48 352.06 1455.36 353.3 1455.61 354.67C1455.78 355.58 1454.63 415.34 1454.63 417.3C1454.63 424.19 1461.05 421.8 1467.78 423.74C1468.75 424.02 1470.1 431.18 1466.43 430.93C1465.01 430.83 1430.7 431.64 1420.96 431.03C1418.64 430.88 1418.02 424.55 1419.39 424.16C1422.84 423.25 1429.42 422.26 1430.8 421.82C1431.6 421.57 1432.16 420.86 1432.23 420.02C1432.47 416.67 1431.76 353.55 1431.75 351.96C1431.71 347.53 1423.01 347.15 1391.03 351.11C1389.65 351.28 1388.86 353.04 1388.86 354.44C1388.84 358.49 1385.11 393.72 1386.61 418.08C1386.81 421.26 1389.2 423.9 1392.35 424.4C1394.13 424.68 1395 424.59 1396.3 424.57C1397.08 424.56 1396.06 432.69 1393.46 432.69L1354.34 432.69C1353.21 432.69 1352.29 428.3 1352.29 428.3C1352.29 426.91 1358.52 425.28 1359.37 425.13C1361.21 424.8 1362.62 423.36 1362.9 421.51C1364.61 410.22 1365.65 368.59 1365.98 353.95C1366.04 351.25 1363.92 349 1361.22 348.9L1341.42 348.1C1341.42 348.1 1341.42 341.37 1345.91 340.37C1347.67 339.97 1362.43 341.08 1364.24 341.08C1366.27 341.08 1366.36 305.69 1364.41 302.9C1362.32 300.11 1358.93 298.59 1354.23 298.31C1352.75 298.23 1351.85 296.62 1352.49 295.29C1353.94 292.28 1355.48 290.78 1357.1 290.78C1357.52 290.78 1399.12 291.71 1399.12 291.71C1401.41 291.53 1401.59 299.33 1397.56 299.06C1396.26 298.97 1395.33 298.72 1394.72 298.72C1391.51 298.72 1389.08 302.21 1387.4 309.17C1386.15 313.91 1387.4 338.08 1387.38 338.44C1387.32 339.58 1388.18 340.55 1389.32 340.58C1398.95 340.86 1412.71 341.3 1430.63 341.91C1431.78 341.95 1432.76 341.02 1432.76 339.87C1432.76 339.87 1431.89 308.27 1430.15 306.04C1428.6 304.06 1425.27 302.57 1420.16 301.58C1419.04 301.36 1418.94 300.22 1418.57 299.14C1418.08 297.73 1419.25 293.64 1419.45 293.34C1423.28 292.07 1454.11 292.17 1463.53 292.23C1463.96 292.23 1464.33 292.31 1464.66 292.43C1465.53 292.74 1466.1 293.56 1466.19 294.48C1466.49 297.5 1467.72 301.93 1464.17 301.71C1461.24 301.53 1458.68 302.08 1456.2 302.25C1455.15 302.32 1454.29 303.22 1454.29 304.28L1454.29 335.15C1454.29 336.88 1457.96 335.39 1458.82 334.73C1459.62 334.13 1462.76 333.93 1463.76 335.07L1478.99 346.46ZM1807.9 318.54C1810.49 318.48 1812.64 320.52 1812.72 323.11C1812.72 323.11 1812.72 327.6 1802.94 327.59C1801.41 327.59 1800.3 329.14 1800.25 330.67C1800.22 331.34 1801.21 378.64 1800.67 384.1C1796.49 426.56 1751.33 423.27 1750.89 423.24C1711.59 421.12 1706.15 394.66 1705.76 384.47C1705.76 384.47 1709.73 330.53 1709.73 329.2C1709.73 326.71 1708.11 325.24 1704.88 324.8C1704.83 324.79 1704.79 324.79 1704.75 324.78C1701.31 324.18 1701.01 319.36 1704.35 318.33C1704.99 318.14 1732.46 318.56 1737.89 318.16C1740.69 317.96 1742.63 323.63 1740.72 324.14C1738.29 324.79 1736.03 324.6 1733.12 324.88C1731.66 325.02 1730.49 326.11 1730.25 327.55C1728.61 337.29 1728.81 375.11 1729.15 382.5C1729.7 394.36 1733.69 413.28 1752.69 413.74C1771.69 414.21 1775.79 397.42 1778.59 389.04C1780.58 382.9 1783.33 331 1780.83 329.08C1779.46 328.03 1773.68 328.01 1770.64 327.41C1768.39 326.96 1769.66 319.16 1770.65 319.16C1782.39 319.16 1799.68 318.75 1807.9 318.54ZM1883.26 330.49C1883.68 325.2 1884.71 315.72 1882.49 312.2C1878.83 306.4 1867.59 301.36 1864.24 301.44C1838.48 302.02 1838.55 321.64 1840.43 328.95C1843.59 341.23 1892.9 360.1 1898.88 364.56C1919.97 380.25 1904.9 416.55 1894.91 425.82C1884.98 435.04 1875.27 437.59 1855.67 437.5C1833.47 437.4 1820.69 423.31 1817.8 415.17C1815.59 408.95 1819.07 380 1834.88 379.43C1857.53 378.61 1866.26 383.8 1867.79 397.16C1868.63 404.45 1865.99 417.09 1855.67 417.02C1848.09 416.96 1843.54 413.35 1841.28 410.02C1839.33 407.15 1842.13 402.43 1844.83 403.28L1852.21 404.61C1853.14 404.78 1854.1 404.31 1854.51 403.44C1855.98 400.29 1860.27 387.94 1848.77 387.97C1844.18 387.98 1829.3 391.69 1829.76 405.1C1830.52 427.76 1851.4 429.03 1852.96 429.14C1876.54 430.79 1882.84 417.16 1884.93 410.75C1887.3 403.5 1890.78 396.24 1885.33 387.25C1882.27 382.2 1852.64 367.51 1846.69 363.72C1827.74 351.65 1820.42 340.96 1820.14 332.37C1819.9 324.8 1825.73 308.77 1830.29 300.85C1837.07 289.11 1853.98 287.09 1862.57 290.36C1873.71 294.6 1879.47 299.36 1892.78 298.66C1896.14 298.48 1910.9 287.15 1915.12 287.09C1918.24 287.05 1920.95 289.27 1919.63 291.2C1914.28 299 1890.28 326.5 1887.2 331.67C1886.07 333.57 1883.15 332.7 1883.26 330.49ZM1570.96 403.41C1570.94 403.45 1570.93 403.49 1570.91 403.54C1569.31 407.28 1567.94 410.07 1566.77 411.92C1566.48 412.39 1566.05 412.75 1565.53 412.95C1560.92 414.83 1555.11 415.76 1548.13 415.76C1544.78 415.76 1522.28 411.37 1519.07 411.37C1514.9 411.37 1510.09 412.05 1504.65 413.39C1502.26 413.98 1500.38 411.36 1501.73 409.31L1508.48 399.06C1508.84 398.51 1509.43 398.23 1510.03 397.94C1512.84 396.6 1522.7 398.76 1530.36 401.13C1538.02 403.5 1543.95 404.69 1548.13 404.69C1553.39 404.69 1567.05 400.14 1567.05 400.14C1569.25 398.66 1572.01 400.96 1570.96 403.41Z" />
	</g>
</svg>