<svg xmlns="http://www.w3.org/2000/svg" viewBox="0 0 861 334" width="861" height="334">
	<defs>
		<clipPath clipPathUnits="userSpaceOnUse" id="cp1">
			<path d="M-62 -216L922 -216L922 550L-62 550Z" />
		</clipPath>
	</defs>
	<style>
		tspan { white-space:pre }
		.shp0 { fill: #ffffff } 
		.shp1 { fill: #2c2e35 } 
	</style>
	<g id="Page 2" clip-path="url(#cp1)">
		<path id="Path 6" fill-rule="evenodd" class="shp0" d="M166.87 276.37C167.55 263.84 168.19 251.89 168.87 239.32C161.17 245.32 166.27 241.33 157.98 247.45C157 248.18 152.06 251.62 149.47 251.62C148.07 251.62 147.37 251.47 147.03 251.16L147.03 209.33L146.84 209.51C146.85 209.45 146.85 209.39 146.85 209.33C138.95 215.42 131.29 219.91 124.9 226.54C106.96 245.14 100.76 254 83.38 273.14C80.96 275.81 78.55 276.78 75.11 276.18C63.97 274.25 52.8 272.48 41.67 270.47C35.06 269.28 38.09 263.88 39.18 262.66C45.31 255.75 53.56 245.38 54.88 243.94C41.9 250.79 29.94 259.09 16.77 265.17L15.98 264.01C22.74 258.82 29.51 253.63 36.86 247.99C34.61 248.68 33 249.87 31.58 249.49C23.78 247.42 25.54 243.54 27.8 241.96C28.37 241.56 65.14 215.72 82.76 203.2C85.14 201.51 87.62 199.97 89.99 198.26C90.5 193.52 93.44 175.87 109.44 160.71C111.88 162.35 115.69 163.79 121.32 163.48C112.81 174.64 109.31 184.19 107.89 190.45C94.82 197.6 89.88 199.49 89.88 199.49L86.89 206.67C91.27 206.11 99.69 203.62 107.07 199.49L107.2 201.51L109.04 201.74C104.99 209.62 103.35 217.38 102.72 222.11C88.12 230.4 76.84 230.81 76.84 230.81C64.42 244.48 49.89 262.6 49.02 263.7C58.35 265.31 67.04 266.91 75.77 268.22C76.74 268.36 78.14 267.04 79.01 266.1C91.33 252.8 93.13 250.34 104.66 236.39C112.49 226.93 121.39 218.91 130.89 211.65C120.36 217.86 112.17 219.73 112.17 219.73C112.17 219.73 110.22 215.01 117.27 201.3C122.96 200.15 131.81 197.06 142.6 189.14C141.7 194.93 142.54 199.86 143.67 202.5C143.67 202.5 143.67 202.5 143.67 202.51C147.12 200.18 150.62 197.9 154.15 195.66C152.21 192.69 149.19 184.22 160.01 167.24C162.9 162.84 165.96 159.13 168.99 155.99C172.69 155.63 177.12 154.87 181.97 153.42C182.94 160.3 187.74 167.17 189.97 170.43L197.03 165.24C194.73 162.27 191.33 153.42 191.41 142.42C177.06 148.7 164.41 146.58 164.41 146.58C164.41 146.58 164.82 132.88 173.76 119.15C159.61 115.67 153.66 104.53 153.66 104.53C153.66 104.53 162.77 91.6 182.35 83.4C182.66 83.23 182.97 83.06 183.29 82.91C185.6 81.79 186.46 80.35 186.97 77.99C189.91 64.19 197.66 54.92 211.96 51.97C216.52 51.03 221.07 50.61 225.63 50.61C257.1 50.61 261.78 65.57 261.78 72.65C259.88 70.5 255.7 69.7 253.88 69.7C244.08 69.7 243.47 82.19 244.71 87.98C247.94 103.07 246.13 116.97 239.4 129.97C237.77 132.92 235.79 135.72 233.59 138.37L233.62 138.35C231.35 141.46 228.82 145.75 227.86 149.89C225.29 161 221.61 171.85 218.85 182.92C215.2 197.52 211.95 212.25 212.31 227.43C212.39 230.91 211.97 233.47 207.97 234.23C211.65 246.49 215.36 258.5 218.81 270.59C219.64 273.48 220.85 274.53 223.89 274.05C226.28 273.67 228.79 273.92 231.24 273.98C235.56 274.08 239.95 274.82 244.17 274.26C250.59 273.41 256.25 274.88 261.5 278.23C263.33 279.41 265.08 280.92 265.42 283.15L130.93 283.15C136.25 278.16 141.91 275.08 149.11 275.47C154.9 275.78 160.69 276.06 166.87 276.37ZM237.67 111.49C238.61 103.76 238.47 96.8 237.21 89.79C236.86 87.81 234.89 77.46 238.8 70.68C240.04 68.52 241.77 67.07 243.69 66.13C242.96 66.05 242.25 65.9 241.57 65.68C239.72 65.07 238.05 65.47 236.44 66.54C235.74 67 235.07 67.49 234.34 67.91C233.43 68.44 232.12 68.61 231.27 68.35C232.77 68.04 233.81 67.27 234.45 66.1C235.06 64.96 234.47 63.64 232.85 63.86C232.92 64.78 232.56 65.56 231.5 66.02C230.72 66.35 229.89 66.15 229.4 65.59C228.85 64.96 228.81 63.91 229.48 63.29C229.94 62.86 229.92 62.58 229.62 62.21C229.49 62.05 229.38 61.87 229.27 61.71C227.76 61.97 227.69 61.96 227.39 63.22C227.18 64.09 227.2 64.98 227.12 65.76C226.47 64.79 226.4 63.59 226.86 62.22C222.13 63.98 219.45 62.9 218.17 61.6C218.56 61.73 218.91 61.86 219.27 61.96C220.63 62.35 222.04 62.33 223.42 61.8C224.52 61.38 225.58 60.87 226.63 60.35C229.13 59.11 231.57 58.87 233.88 60.14C234.98 60.74 236.04 61.4 237.09 62.06C238.3 62.81 239.44 63.64 240.67 64.36C241.83 65.04 243.07 65.54 244.43 65.8C246.36 65 248.43 64.67 250.4 64.69C247.18 61.46 240.47 57.21 230.32 57.21C213.37 57.21 210.19 57.74 206.18 62.36C205.47 63.18 204.56 65 204.84 66.09C205.97 70.51 208.69 73.77 213.17 75.24C215.48 76 217.8 76.7 220.13 77.4C220.95 77.64 220.9 78.83 220.05 79.01C210.79 80.95 204.66 80.75 196.68 73.25C196.03 75.64 195.47 77.93 194.84 80.17C216.51 78.15 231.68 96.08 237.67 111.49ZM216.57 160.67C216.21 160.53 215.86 160.4 215.5 160.26C214.88 161.82 214.08 163.32 213.66 164.93C210.44 177.32 207.45 189.83 200.97 201.03C195.43 210.62 189.43 219.94 183.64 229.38C182.98 230.45 182.36 231.55 181.71 232.65C184.21 234.64 186.48 236.46 188.86 238.36C191.47 236.03 193.76 232.81 196.87 231.47C203.37 228.66 204.5 224.2 204.89 217.54C205.85 200.66 210.18 184.27 214.63 167.98C215.29 165.55 215.92 163.11 216.57 160.67ZM198.63 239.49C196.59 242.11 194.98 244.07 193.47 246.11C191.18 249.19 189.08 249.53 186.18 246.99C184.01 245.1 182 243.05 179.25 240.43C178.54 252.86 177.9 264.26 177.24 275.79C179.59 275.79 181.78 275.64 183.95 275.83C186.82 276.08 189.67 276.59 192.52 277.01C193.18 277.11 193.86 277.51 194.48 277.43C199.28 276.76 204.06 276 209.35 275.19C205.94 263.83 202.4 252.03 198.63 239.49ZM180.47 219.33C187.87 207.03 190.18 203.7 197.02 191.09C200.19 185.25 201.71 178.51 204.31 171.26C193.61 178.72 183.89 185.56 174.08 192.28C169.08 195.71 164.02 199.09 158.78 202.14C156.48 203.48 155.96 205 155.95 207.46C155.87 217.62 155.56 227.78 155.33 238.21C160.84 234.18 180.06 220.01 180.47 219.33ZM154.6 151.73L154.54 155.4L157.91 155.94C158.2 155.96 158.97 156.05 160.03 156.14C157.35 159.25 154.75 162.66 152.2 166.57C149.37 170.99 147.3 174.96 145.77 178.59C128.55 193.2 116.72 191.7 116.72 191.7C116.72 191.7 116.21 178.62 131.66 161.35C135.26 160.2 139.26 158.52 143.79 156.13C147.79 154.05 151.43 151.77 154.75 149.48C154.65 150.6 154.63 151.42 154.6 151.73ZM115.13 153.42C115.13 153.42 118.33 129.97 144.64 111.97C147.34 115.15 154.74 124.01 161.29 126.65C158.98 131.52 157.44 136.1 156.43 139.98C152.94 142.63 148.94 145.25 144.32 147.6C121.6 159.68 115.13 153.42 115.13 153.42ZM673.16 276.94L677.19 283.15L669.68 283.15L666.45 278.18C662.97 272.78 661.42 271.85 656.95 271.72L650.12 271.72L650.12 283.15L643.41 283.15L643.41 239.68L657.82 239.68C669.43 239.68 676.57 246.26 676.57 255.7C676.57 262.59 672.6 267.38 666.33 269.55C668.5 270.61 670.49 272.78 673.16 276.94ZM670.24 255.7C670.24 249.12 664.9 246.02 658.38 246.02L650.12 246.02L650.12 265.45L658.38 265.45C664.9 265.45 670.24 262.53 670.24 255.7ZM618.59 239.68L636.34 283.15L628.96 283.15L625.04 273.4L608.09 273.4L604.12 283.15L596.73 283.15L614.67 239.68L618.59 239.68ZM622.75 267.06L616.6 251.91L610.45 267.06L622.75 267.06ZM751 283.15L742.85 283.15L738.54 272.4L719.85 272.4L715.47 283.15L707.33 283.15L727.11 235.23L731.42 235.23L751 283.15ZM736.01 265.42L729.23 248.72L722.45 265.42L736.01 265.42ZM684.26 239.68L701.28 239.68L701.28 246.02L696.12 246.02L696.12 276.81L701.28 276.81L701.28 283.15L684.26 283.15L684.26 276.81L689.42 276.81L689.42 246.02L684.26 246.02L684.26 239.68ZM572.46 239.68L593.01 239.68L593.01 267.81C593.01 278.49 586.61 283.58 578.23 283.58C569.79 283.58 563.45 278.49 563.45 267.81L563.45 265.7L570.16 265.7L570.16 268.68C570.16 274.02 573.39 277.25 578.23 277.25C583.07 277.25 586.3 274.02 586.3 268.68L586.3 246.02L572.46 246.02L572.46 239.68ZM411.23 239.68L439.48 239.68L439.48 246.02L417.94 246.02L417.94 258.06L437.99 258.06L437.99 264.4L417.94 264.4L417.94 276.81L439.48 276.81L439.48 283.15L411.23 283.15L411.23 239.68ZM368.38 259.19C368.38 269.39 375.84 276.64 385.36 276.64C390.56 276.64 395.22 274.73 398.64 271.24L403.43 275.69C398.91 280.55 392.48 283.63 385.36 283.63C371.88 283.63 360.99 272.67 360.99 259.19C360.99 245.71 371.88 234.75 385.36 234.75C392.48 234.75 398.91 237.83 403.43 242.69L398.64 247.14C395.22 243.72 390.56 241.74 385.36 241.74C375.84 241.74 368.38 249.06 368.38 259.19ZM529.19 239.68L557.44 239.68L557.44 246.02L535.89 246.02L535.89 258.06L555.95 258.06L555.95 264.4L535.89 264.4L535.89 276.81L557.44 276.81L557.44 283.15L529.19 283.15L529.19 239.68ZM476.86 276.94L480.89 283.15L473.38 283.15L470.15 278.18C466.67 272.78 465.12 271.85 460.65 271.72L453.82 271.72L453.82 283.15L447.11 283.15L447.11 239.68L461.52 239.68C473.13 239.68 480.27 246.26 480.27 255.7C480.27 262.59 476.3 267.38 470.03 269.55C472.2 270.61 474.19 272.78 476.86 276.94ZM473.94 255.7C473.94 249.12 468.6 246.02 462.08 246.02L453.82 246.02L453.82 265.45L462.08 265.45C468.6 265.45 473.94 262.53 473.94 255.7ZM514.66 239.68L522.11 239.68L504.17 283.15L500.26 283.15L482.19 239.68L489.58 239.68L502.18 270.79L514.66 239.68Z" />
		<path id="Path 7" fill-rule="evenodd" class="shp1" d="M498.95 125.22C505.54 161.46 488.35 176.08 465.02 179.07C424.18 179.94 415.31 151.92 415.28 142.5C415.2 118.79 429.08 95.71 457.7 97.71C474.99 98.92 495.19 109.11 498.95 125.22ZM487.58 142.37C487.61 115.32 461.55 109.57 450.22 111.05C436.52 112.84 428.92 135.89 432.62 150.48C433.45 153.75 445.97 175.24 471.62 167.08C481.4 162.64 487.56 154.83 487.58 142.37ZM609.77 182.25C612.14 186.73 617.46 205.42 592.09 202.27C566.16 199.05 550.48 166.44 549.25 153.99C548.71 148.58 551.51 149.24 568.16 151.89C578.35 153.51 578.62 139.58 578.51 132.04C578.25 114.95 560.27 113.21 542.55 113.23C541.44 113.23 541.3 117.39 541.3 117.39C541.3 117.39 540.22 185.41 540.14 188.27C540.02 192.26 539.98 195.14 547.78 195.09C551.24 195.07 549.78 200.73 548.35 200.73C548.11 200.73 515.98 200.59 515.66 200.57C512.22 200.42 511.71 195.4 515.09 194.76C515.12 194.75 515.15 194.75 515.18 194.74C518.24 194.19 519.99 193.07 520.4 191.4C520.82 189.03 521.49 117.72 519.49 110.12C519.26 109.24 512.88 107.44 511.96 107.36C510.31 107.23 509 105.89 508.94 104.23C508.9 102.94 509.4 101.64 511.41 101.31C514.01 101.05 567.65 101.18 570.98 101.32C591.21 102.17 602.71 119.38 601.08 132.88C599.45 146.31 588.47 154.82 582.48 157.33C579.48 158.47 576.67 159.27 574.04 159.74C571.77 160.16 571.31 162.47 572.25 164.58C582.71 188.29 589.41 194.84 598.98 194.27C603.13 194.02 602.05 184.04 604.8 181.69C606.31 180.4 608.84 180.49 609.77 182.25ZM402.99 130.46C407.34 134.46 403.57 140.62 401.9 140.62C399.11 140.62 384.15 136.6 381.86 136.26C380.48 136.06 379.36 137.3 379.61 138.67C379.78 139.58 378.63 199.34 378.63 201.3C378.63 208.19 385.05 205.8 391.78 207.74C392.75 208.02 394.1 215.18 390.43 214.93C389.01 214.83 354.7 215.64 344.96 215.03C342.64 214.88 342.02 208.55 343.39 208.16C346.84 207.25 353.42 206.26 354.8 205.82C355.6 205.57 356.16 204.86 356.23 204.02C356.47 200.67 355.76 137.55 355.75 135.96C355.71 131.53 347.01 131.15 315.03 135.11C313.65 135.28 312.86 137.04 312.86 138.44C312.84 142.49 309.11 177.72 310.61 202.08C310.81 205.26 313.2 207.9 316.35 208.4C318.13 208.68 319 208.59 320.3 208.57C321.08 208.56 320.06 216.69 317.46 216.69L278.34 216.69C277.21 216.69 276.29 212.3 276.29 212.3C276.29 210.91 282.52 209.28 283.37 209.13C285.21 208.8 286.62 207.36 286.9 205.51C288.61 194.22 289.65 152.59 289.98 137.95C290.04 135.25 287.92 133 285.22 132.9L265.42 132.1C265.42 132.1 265.42 125.37 269.91 124.37C271.67 123.97 286.43 125.08 288.24 125.08C290.27 125.08 290.36 89.69 288.41 86.9C286.32 84.11 282.93 82.59 278.23 82.31C276.75 82.23 275.85 80.62 276.49 79.29C277.94 76.28 279.48 74.78 281.1 74.78C281.52 74.78 323.12 75.71 323.12 75.71C325.41 75.53 325.59 83.33 321.56 83.06C320.26 82.97 319.33 82.72 318.72 82.72C315.51 82.72 313.08 86.21 311.4 93.17C310.15 97.91 311.4 122.08 311.38 122.44C311.32 123.58 312.18 124.55 313.32 124.58C322.95 124.86 336.71 125.3 354.63 125.91C355.78 125.95 356.76 125.02 356.76 123.87C356.76 123.87 355.89 92.27 354.15 90.04C352.6 88.06 349.27 86.57 344.16 85.58C343.04 85.36 342.94 84.22 342.57 83.14C342.08 81.73 343.25 77.64 343.45 77.34C347.28 76.07 378.11 76.17 387.53 76.23C387.96 76.23 388.33 76.31 388.66 76.43C389.53 76.74 390.1 77.56 390.19 78.48C390.49 81.5 391.72 85.93 388.17 85.71C385.24 85.53 382.68 86.08 380.2 86.25C379.15 86.32 378.29 87.22 378.29 88.28L378.29 119.15C378.29 120.88 381.96 119.39 382.82 118.73C383.62 118.13 386.76 117.93 387.76 119.07L402.99 130.46ZM731.9 102.54C734.49 102.48 736.64 104.52 736.72 107.11C736.72 107.11 736.72 111.6 726.94 111.59C725.41 111.59 724.3 113.14 724.25 114.67C724.22 115.34 725.21 162.64 724.67 168.1C720.49 210.56 675.33 207.27 674.89 207.24C635.59 205.12 630.15 178.66 629.76 168.47C629.76 168.47 633.73 114.53 633.73 113.2C633.73 110.71 632.11 109.24 628.88 108.8C628.83 108.79 628.79 108.79 628.75 108.78C625.31 108.18 625.01 103.36 628.35 102.33C628.99 102.14 656.46 102.56 661.89 102.16C664.69 101.96 666.63 107.63 664.72 108.14C662.29 108.79 660.03 108.6 657.12 108.88C655.66 109.02 654.49 110.11 654.25 111.55C652.61 121.29 652.81 159.11 653.15 166.5C653.7 178.36 657.69 197.28 676.69 197.74C695.69 198.21 699.79 181.42 702.59 173.04C704.58 166.9 707.33 115 704.83 113.08C703.46 112.03 697.68 112.01 694.64 111.41C692.39 110.96 693.66 103.16 694.65 103.16C706.39 103.16 723.68 102.75 731.9 102.54ZM807.26 114.49C807.68 109.2 808.71 99.72 806.49 96.2C802.83 90.4 791.59 85.36 788.24 85.44C762.48 86.02 762.55 105.64 764.43 112.95C767.59 125.23 816.9 144.1 822.88 148.56C843.97 164.25 828.9 200.55 818.91 209.82C808.98 219.04 799.27 221.59 779.67 221.5C757.47 221.4 744.69 207.31 741.8 199.17C739.59 192.95 743.07 164 758.88 163.43C781.53 162.61 790.26 167.8 791.79 181.16C792.63 188.45 789.99 201.09 779.67 201.02C772.09 200.96 767.54 197.35 765.28 194.02C763.33 191.15 766.13 186.43 768.83 187.28L776.21 188.61C777.14 188.78 778.1 188.31 778.51 187.44C779.98 184.29 784.27 171.94 772.77 171.97C768.18 171.98 753.3 175.69 753.76 189.1C754.52 211.76 775.4 213.03 776.96 213.14C800.54 214.79 806.84 201.16 808.93 194.75C811.3 187.5 814.78 180.24 809.33 171.25C806.27 166.2 776.64 151.51 770.69 147.72C751.74 135.65 744.42 124.96 744.14 116.37C743.9 108.8 749.73 92.77 754.29 84.85C761.07 73.11 777.98 71.09 786.57 74.36C797.71 78.6 803.47 83.36 816.78 82.66C820.14 82.48 834.9 71.15 839.12 71.09C842.24 71.05 844.95 73.27 843.63 75.2C838.28 83 814.28 110.5 811.2 115.67C810.07 117.57 807.15 116.7 807.26 114.49ZM494.96 187.41C494.94 187.45 494.93 187.49 494.91 187.54C493.31 191.28 491.94 194.07 490.77 195.92C490.48 196.39 490.05 196.75 489.53 196.95C484.92 198.83 479.11 199.76 472.13 199.76C468.78 199.76 446.28 195.37 443.07 195.37C438.9 195.37 434.09 196.05 428.65 197.39C426.26 197.98 424.38 195.36 425.73 193.31L432.48 183.06C432.84 182.51 433.43 182.23 434.03 181.94C436.84 180.6 446.7 182.76 454.36 185.13C462.02 187.5 467.95 188.69 472.13 188.69C477.39 188.69 491.05 184.14 491.05 184.14C493.25 182.66 496.01 184.96 494.96 187.41Z" />
	</g>
</svg>